# xmcd
#
# Track frame offsets: 
#        150
#        24325
#        47290
#        69339
#        93934
#        114294
#        129968
#        153128
#
# Disc length: 2497 seconds
#
# Revision: 0
# Processed by: cddbd v1.5.2PL0 Copyright (c) Steve Scherf et al.
# Submitted via: ExactAudioCopyFreeDBPlugin 1.0
#
DISCID=4c09bf08
DTITLE=Fink - Fink's Sunday Night Blues Club, Vol. 1
DYEAR=2017
DGENRE=Blues Fusion
TTITLE0=Cold Feet
TTITLE1=She Was Right
TTITLE2=Little Bump
TTITLE3=Boneyard
TTITLE4=Hard To See You Happy
TTITLE5=Keep Myself Alone Now
TTITLE6=Hour Golden
TTITLE7=Black Curls
EXTD=
EXTT0=
EXTT1=
EXTT2=
EXTT3=
EXTT4=
EXTT5=
EXTT6=
EXTT7=
PLAYORDER=
